<?xml version="1.0" standalone="yes"?>
<svg xmlns="http://www.w3.org/2000/svg" width="1024" height="1024">
<path style="fill:#d7e4e9; stroke:none;" d="M0 0L0 1024L1024 1024L1024 0L0 0z"/>
<path style="fill:#862723; stroke:none;" d="M439 555C428.561 549.123 415.438 546.072 404 542.565C378.567 534.766 353.789 529 327 529C332.286 543.526 343.067 556.564 352 569L354 569C357.06 563.045 360.426 557.182 363 551C371.018 553.564 379.604 557.267 388 558C384.002 574.831 375.536 591.866 369.203 608C365.394 617.702 361.016 626.084 366 636C355.27 633.445 339.947 633.666 329.001 635.189C323.888 635.901 319.182 640.502 322.183 645.867C325.769 652.278 337.919 650 344 650L408 650C439.331 650 470.753 650.95 502 651C544.615 651.068 587.314 650 630 650L683 650C688.06 650 697.735 651.708 700.257 645.867C702.406 640.889 698.957 636.138 693.999 635.228C682.092 633.043 668.111 635 656 635C662.333 627.486 657.319 620.113 654.319 612C647.659 593.991 640.151 576.181 634 558C642.072 557.295 650.431 553.822 658 551L667 569L669 569C678.159 556.25 688.744 543.519 695 529C673.208 529.45 652.004 532.434 631 538.427C614.877 543.028 599.337 550.22 583 554C608.95 514.769 663.402 500.92 708 500C711.071 486.604 715.592 473.669 717.572 460C722.299 427.366 720.982 393.587 710.971 362C701.806 333.08 686.133 303.921 665.011 282C654.904 271.51 644.938 261.43 633 252.91C596.306 226.722 548.291 211.056 503 213.039C459.122 214.961 414.223 231.483 380.039 259.207C322.635 305.764 292.615 382.985 303.427 456C305.015 466.72 307.29 477.547 310.152 488C311.031 491.21 311.88 496.849 314.702 498.972C317.889 501.37 325.149 500.776 329 501.086C337.713 501.786 346.405 503.561 355 505.084C385.221 510.44 424.905 525.379 439 555z"/>
<path style="fill:#d7e4e9; stroke:none;" d="M592 402L482 402L482 359L570 359L593 359C596.197 359 600.779 359.781 603.61 357.972C608.734 354.698 611.278 343.37 613.766 338C619.288 326.081 624.324 313.945 629.769 302C633.545 293.718 638.641 285.076 640 276L475 276L431 276C425.165 276 417.224 274.624 412.105 278.009C405.127 282.623 407 292.828 407 300L407 359L407 427C407 434.03 404.404 447.743 408.858 453.61C410.778 456.138 414.251 457.377 417 458.753L434 467.247C445.611 473.052 458.272 481.55 471 484.471C476.4 485.71 482.492 485 488 485L520 485L545 485C548.197 485 552.779 485.781 555.61 483.972C560.871 480.611 563.595 468.571 566 463C571.916 449.297 578.118 435.719 584.001 422C586.807 415.455 590.745 409.064 592 402M548 542C526.228 523.174 496.057 524.508 474 542C466.825 517.095 444.122 498.678 422 487.258C412.425 482.316 398.255 478.82 390.419 471.363C383.305 464.592 384.492 451.085 378.867 443.105C374.688 437.177 365.228 436.242 361.318 443.105C357.663 449.518 362.608 457.847 364.667 464C366.942 470.802 368.435 480.387 373.394 485.786C377.103 489.825 383.166 491.095 388 493.309C397.097 497.474 406.251 502.008 415 506.861C426.438 513.205 437.151 520.618 445.331 531C450.794 537.934 454.558 548.742 461.213 554.363C465.049 557.603 470.485 559.173 475 561.231C501.738 573.42 532.567 570.539 557.996 556.204C564.608 552.477 567.342 545.116 571.344 539C576.49 531.136 582.691 524.37 590 518.461C602.193 508.603 616.971 502.046 631 495.258C636.978 492.366 646.07 490.599 650.005 484.895C652.211 481.698 653.029 477.643 654.194 474C656.971 465.326 667.677 447.131 657.786 439.893C653.077 436.448 646.838 438.958 643.499 443.105C637.143 451 639.341 464.687 631.775 471.582C625.329 477.457 614.614 479.707 607 483.864C582.341 497.327 557.516 514.052 548 542M582 554L583 555L582 554M380 635L425 635C420.754 625.848 425.627 618.329 427 609C420.598 608.725 411.196 608.083 406.225 603.581C400.01 597.954 401.904 586.537 410.004 583.607C413.807 582.231 418.325 583.951 422 585C428.593 586.881 435.285 588.614 442 590C442 586.458 443.108 580.55 440.972 577.51C439.304 575.135 435.589 574.606 433 573.859C426.616 572.017 420.395 569.667 414 567.86C411.371 567.116 407.366 565.241 405.086 567.618C401.295 571.568 399.858 580.881 397.95 586C391.932 602.14 387.307 619.433 380 635M466.004 566.613C449.892 570.492 456.525 606.31 472.996 602.427C489.105 598.628 483.045 562.51 466.004 566.613M552.001 566.598C541.313 568.871 538.806 583.04 540.823 592C542.108 597.712 546.347 603.709 553 602.562C563.973 600.671 566.647 584.964 564.467 576C563.102 570.388 558.187 565.282 552.001 566.598M580 576L580 590C587.1 588.956 594.04 586.613 601 584.873C604.439 584.014 608.42 582.538 611.985 583.448C620.754 585.688 621.911 598.12 615.786 603.581C610.686 608.129 601.408 608.341 595 610C596.17 618.679 601.411 626.667 597 635L642 635C637.197 617.437 629.547 600.125 623.305 583C621.225 577.293 618.407 571.937 617 566C604.276 567.111 592.57 574.144 580 576M447 609L440 635C448.83 635 458.374 633.946 467 636C464.646 630.952 460.255 627.412 456.899 623C453.457 618.475 451.029 612.974 447 609M573 610C570.16 618.912 562.57 628.623 555 634C562.649 637.21 574.712 635 583 635C580.388 628.228 578.972 614.166 573 610z"/>
<path style="fill:#862723; stroke:none;" d="M586.015 683.654C573.263 687.71 580.13 708.444 592.985 704.142C606.842 699.505 599.755 679.283 586.015 683.654M259 753L280 753C282.978 753 286.986 753.653 289.772 752.397C294.568 750.234 293.118 741.239 292.985 737.001C292.922 735.006 292.975 732.417 291.258 731.028C289.033 729.228 284.65 730 282 730L259 730C259.004 723.674 260.805 717.119 259 711L286 711C289.95 711 295.18 711.854 298.891 710.258C304.204 707.973 304.804 694.768 301.821 690.434C299.746 687.419 295.172 688.005 292 688L264 688L244 688C241.371 688.005 237.773 687.529 235.742 689.603C233.89 691.495 234.038 694.559 234.004 697C233.929 702.331 234 707.668 234 713L234 771C234 776.849 231.948 787.712 236.009 792.486C239.544 796.643 256.115 796.077 258.397 790.852C259.853 787.516 259 782.562 259 779L259 753M341 708.428C332.259 709.68 324.067 712.172 317.004 717.681C300.233 730.759 296.424 757.736 308.789 775C319.038 789.311 335.709 796.191 353 793.7C358.985 792.837 364.932 790.564 370 787.3C401.861 766.778 393.303 717.143 356 709.211C350.982 708.144 346.103 707.697 341 708.428M715 736C727.373 729.517 748.683 725.147 754 743C747.328 740.047 739.317 738.482 732 739.17C725.808 739.751 719.552 740.904 714 743.825C710.263 745.791 706.987 748.673 704.394 752.001C701.409 755.831 700.133 760.201 700.015 765C699.806 773.508 702.567 781.608 709.174 787.319C721.245 797.754 745.701 798.656 754 783C754.875 785.953 754.355 790.866 756.742 793.062C760.894 796.881 775.674 796.468 778.106 790.867C780.151 786.155 778.002 779.056 778 774C777.994 758.464 781.676 737.542 772.401 724.015C761.921 708.73 740.118 705.007 723 708.888C717.716 710.086 707.393 712.507 706.426 719.015C705.598 724.589 712.088 731.679 715 736M446 734L453 710C441.126 706.492 426.63 713.178 421 724C420.781 720.19 422.118 714.564 419.397 711.434C415.869 707.376 408.602 709.859 404.001 710.001C401.688 710.072 398.799 709.889 397.603 712.318C395.406 716.783 397 725.099 397 730L397 773C397 778.195 395.117 788.117 398.179 792.566C400.888 796.502 412.984 795.951 416.867 794.142C422.684 791.432 421 782.183 421 777C421 761.122 417.228 737.79 438 733.522C440.808 732.945 443.261 733.355 446 734M506 723C503.848 706.9 484.13 708.508 472 709.039C468.125 709.209 459.87 708.852 457.442 712.318C454.584 716.398 454.139 723.198 453.427 728C451.32 742.229 452 756.649 452 771C452 776.766 450.37 785.51 452.603 790.891C454.88 796.376 468.293 796.613 472.721 793.821C476.534 791.418 475.994 785.883 476 782L476 750C476 746.76 475.037 735.844 480.935 736.782C486.866 737.726 485 749.961 485 754L485 781C485 784.561 484.123 789.738 486.603 792.682C489.638 796.284 498.771 795.57 502.981 794.772C511.06 793.241 509 782.054 509 776C509 759.747 504.47 732.995 528 731.765C537.131 731.287 543.529 738.221 543.96 747C544.432 756.621 544 766.367 544 776C544 780.356 543.174 785.731 544.434 789.941C546.435 796.631 563.405 797.217 566.972 791.697C568.518 789.304 567.999 785.703 568 783L568 762C568 750.215 570.202 735.974 565.085 725C557.5 708.733 536.315 705.189 521 711.876C514.942 714.521 510.891 718.786 506 723M594 709.464C590.448 709.752 581.403 708.605 579.028 711.603C576.105 715.294 578 725.487 578 730L578 774C578 778.911 576.381 787.443 579.028 791.772C581.788 796.285 590.486 795.399 594.999 794.891C604.104 793.867 602 783.75 602 777L602 725C602 718.015 603.825 708.671 594 709.464M670 780C666.795 793.008 667.911 808.141 652 812.51C646.356 814.06 640.641 813.71 635 812.24C627.928 810.397 619.19 806.379 614.573 815.105C607.65 828.186 622.89 834.678 633 837.101C651.072 841.433 670.901 836.963 682.761 821.961C689.109 813.93 690.188 804.816 691.169 795C692.985 776.84 692 758.26 692 740L692 721C691.999 718.237 692.484 714.7 690.972 712.228C688.2 707.693 673.292 707.132 669.603 710.742C667.346 712.952 668.002 717.14 668 720C665.351 716.757 662.78 713.435 658.999 711.442C643.332 703.186 623.296 713.095 613.928 726C599.622 745.709 607.911 776.922 630 787.099C635.929 789.83 643.469 791.732 650 790.675C658.029 789.376 664.208 785.526 670 780z"/>
<path style="fill:#d7e4e9; stroke:none;" d="M340 731.533C325.473 735.064 321.863 754.219 330.764 764.815C336.032 771.086 344.354 772.733 352 770.645C364.691 767.179 369.793 750.671 362.867 740.015C357.984 732.503 348.586 729.446 340 731.533M648 731.479C622.904 734.38 627.906 771.91 653 768.815C677.056 765.848 670.621 728.864 648 731.479M736 755.471C732.873 756.025 729.575 757.179 727.228 759.394C718.28 767.841 730.063 776.925 739 775.521C745.276 774.535 754.229 768.738 751.242 761.105C749.158 755.779 740.9 754.604 736 755.471z"/>
</svg>
